<?xml version="1.0" encoding="UTF-8"?> <svg xmlns="http://www.w3.org/2000/svg" width="218" height="40" viewBox="0 0 218 40" fill="none"><path d="M19.9526 40C30.9721 40 39.9052 31.0457 39.9052 20C39.9052 8.9543 30.9721 0 19.9526 0C8.93309 0 0 8.9543 0 20C0 31.0457 8.93309 40 19.9526 40Z" fill="#89AF6B"></path><path d="M20.2527 25.6626C20.9166 25.6626 21.4547 25.1232 21.4547 24.4577C21.4547 23.7923 20.9166 23.2529 20.2527 23.2529C19.5889 23.2529 19.0508 23.7923 19.0508 24.4577C19.0508 25.1232 19.5889 25.6626 20.2527 25.6626Z" fill="white"></path><path d="M19.5921 5.00002L19.6522 5.06026L19.7123 5.00002C20.133 4.57833 20.4335 3.97592 20.4335 3.37351C20.4335 2.7711 20.1931 2.1687 19.7123 1.74701L19.6522 1.68677L19.5921 1.74701C19.1714 2.1687 18.8709 2.7711 18.8709 3.37351C18.8108 3.97592 19.1113 4.57833 19.5921 5.00002Z" fill="white"></path><path d="M14.2431 7.53012H14.3633L14.4234 7.40964C14.5436 6.80723 14.4234 6.14458 14.0628 5.66265C13.7022 5.18072 13.1614 4.81927 12.5003 4.75903H12.3801L12.32 4.87951C12.1998 5.48192 12.32 6.14458 12.6806 6.6265C13.0412 7.10843 13.582 7.46988 14.2431 7.53012Z" fill="white"></path><path d="M7.87282 10.1807C8.23341 10.4216 8.594 10.4819 8.95459 10.4819C9.19498 10.4819 9.37528 10.4216 9.61567 10.4216L9.73587 10.3614L9.67577 10.2409C9.55557 9.63849 9.19498 9.09632 8.6541 8.79511C8.11322 8.49391 7.45214 8.37343 6.85115 8.55415L6.73096 8.61439L6.79106 8.73487C6.97135 9.33728 7.33194 9.87945 7.87282 10.1807Z" fill="white"></path><path d="M6.79094 14.0361C7.21162 13.9759 7.57221 13.8554 7.8727 13.6144L7.9328 13.5542V13.4337C7.63231 12.8915 7.09143 12.5301 6.49045 12.3494C5.88946 12.2289 5.22838 12.3494 4.7476 12.7108L4.6875 12.8313L4.7476 12.8915C5.04809 13.4337 5.58897 13.7952 6.18995 13.9759C6.31015 14.0361 6.55054 14.0361 6.79094 14.0361Z" fill="white"></path><path d="M6.73105 17.2891C6.13007 17.3493 5.58918 17.7108 5.22859 18.1927L5.1084 18.3132L5.1685 18.3734C5.58918 18.7349 6.06997 18.9156 6.67095 18.9156C6.73105 18.9156 6.79115 18.9156 6.91134 18.9156C7.51233 18.8554 8.05321 18.4939 8.4138 18.012L8.4739 17.9517L8.4138 17.8915C7.93301 17.3493 7.33203 17.1686 6.73105 17.2891Z" fill="white"></path><path d="M12.9211 20.8434C12.3802 21.1446 12.0196 21.6868 11.8994 22.2892V22.4699L12.0196 22.5302C12.3802 22.5904 12.7408 22.6506 13.1014 22.5904C13.3418 22.5302 13.5822 22.4699 13.8226 22.3494C14.3634 22.0482 14.724 21.5061 14.8442 20.9037L14.9043 20.7832L14.724 20.6627C14.0629 20.482 13.462 20.5422 12.9211 20.8434Z" fill="white"></path><path d="M20.3129 15.9037L20.373 15.9639L20.4331 15.9037C20.8538 15.241 20.9139 14.4579 20.6735 13.735C20.4331 13.0121 19.9524 12.4097 19.2312 12.0483L19.1711 11.988L19.111 12.0483C18.6903 12.7109 18.6302 13.4941 18.8706 14.217C19.111 14.9398 19.6519 15.6025 20.3129 15.9037Z" fill="white"></path><path d="M19.1112 10.6025L19.1713 10.5423C19.8323 10.241 20.3131 9.63864 20.5535 8.91575C20.7939 8.19285 20.6136 7.40972 20.253 6.80731L20.1929 6.74707H20.1328C19.4717 7.04828 18.991 7.65069 18.7506 8.37358C18.5102 9.09647 18.6905 9.8796 19.0511 10.482L19.1112 10.6025Z" fill="white"></path><path d="M15.8055 15.6024C15.0242 15.3012 14.0025 15.3012 13.2213 15.6024L13.1011 15.6626L13.1612 15.7831C13.4016 16.506 14.0626 17.1686 14.8439 17.4698C15.3247 17.6506 15.8656 17.7108 16.4666 17.7108C16.8272 17.6506 17.1878 17.6506 17.4882 17.4698L17.6084 17.4096L17.5483 17.2891C17.2479 16.506 16.6469 15.9036 15.8055 15.6024Z" fill="white"></path><path d="M13.8826 18.6144L13.9427 18.5541L13.8826 18.4939C13.2816 17.9517 12.5604 17.771 11.7791 17.771C11.058 17.8312 10.3368 18.2529 9.856 18.8553L9.7959 18.9156L9.856 18.9758C10.3969 19.4577 11.1181 19.6987 11.7791 19.6987C11.8392 19.6987 11.8392 19.6987 11.8993 19.6987C12.7407 19.6385 13.4018 19.2168 13.8826 18.6144Z" fill="white"></path><path d="M9.1949 11.9879L9.07471 12.0481L9.13481 12.1686C9.3752 12.8915 9.91608 13.4337 10.6373 13.7951C11.1781 14.0361 11.7791 14.0361 12.32 13.9156C12.5003 13.8554 12.6806 13.8554 12.8008 13.7349L12.921 13.6746L12.8609 13.5542C12.6205 12.8313 12.0796 12.2891 11.3584 11.9276C10.8176 11.6867 10.2166 11.6867 9.67569 11.8072C9.49539 11.8674 9.3151 11.9276 9.1949 11.9879Z" fill="white"></path><path d="M11.5388 16.0844L11.5989 16.0242L11.5388 15.9639C11.1181 15.3615 10.3969 15.0001 9.61564 14.9398C9.01466 14.8796 8.47378 15.0001 7.99299 15.3615C7.8728 15.4218 7.7526 15.5423 7.57231 15.6627H7.51221L7.57231 15.723C7.99299 16.3254 8.71417 16.6868 9.49545 16.7471C10.0964 16.8073 10.6373 16.6868 11.1181 16.3254C11.2383 16.2651 11.4186 16.1447 11.5388 16.0844Z" fill="white"></path><path d="M11.4186 9.87961C11.8993 10.3013 12.5604 10.5423 13.2215 10.6025C13.2816 10.6025 13.4619 10.6025 13.522 10.6025H13.6422V10.4218C13.6422 9.69889 13.2816 8.91576 12.7407 8.43383C12.2599 8.01214 11.5989 7.77118 10.9378 7.71094C10.8777 7.71094 10.6974 7.71094 10.6373 7.71094H10.5171V7.83142C10.5171 8.61455 10.8777 9.33744 11.4186 9.87961Z" fill="white"></path><path d="M16.7069 4.21698L16.6468 4.15674L16.5266 4.27722C16.0459 4.87963 15.8656 5.60252 15.9858 6.38565C16.106 7.16879 16.5867 7.7712 17.2478 8.19288L17.3079 8.25312L17.368 8.19288C17.8488 7.59047 18.0291 6.86758 17.9089 6.08445C17.7887 5.24107 17.368 4.63867 16.7069 4.21698Z" fill="white"></path><path d="M14.063 12.1084V12.2289C14.063 12.8313 14.4236 13.4939 14.9645 13.8554C15.5654 14.2771 16.2265 14.4578 17.0078 14.3976C17.0679 14.3976 17.0679 14.3976 17.0679 14.3976H17.1881V14.3373C17.1881 13.7349 16.8275 13.0723 16.2866 12.7108C15.6856 12.2891 14.9645 12.1084 14.1832 12.1686H14.063V12.1084Z" fill="white"></path><path d="M17.1279 11.265C17.188 11.265 17.188 11.265 17.188 11.265H17.2481V11.2048C17.3683 10.6024 17.188 9.99998 16.7072 9.45781C16.2865 8.97589 15.6254 8.61444 14.9043 8.5542H14.8442V8.61444C14.724 9.21685 14.9043 9.81926 15.385 10.3614C15.8057 10.9036 16.4067 11.2048 17.1279 11.265Z" fill="white"></path><path d="M25.5417 7.53012H25.6619C26.2628 7.46988 26.8037 7.10843 27.2244 6.6265C27.585 6.14458 27.7052 5.48192 27.585 4.87951L27.5249 4.75903H27.4047C26.8037 4.81927 26.2628 5.18072 25.8422 5.66265C25.5417 6.20482 25.3614 6.86747 25.5417 7.40964V7.53012Z" fill="white"></path><path d="M30.8902 10.4819C31.3109 10.4819 31.6715 10.4216 31.972 10.1807C32.5129 9.87945 32.8734 9.33728 32.9936 8.73487L33.0537 8.61439L32.9335 8.55415C32.3326 8.37343 31.6715 8.49391 31.1306 8.79511C30.5897 9.09632 30.2291 9.63849 30.1089 10.2409L30.0488 10.3614L30.169 10.4216C30.4094 10.4216 30.6498 10.4819 30.8902 10.4819Z" fill="white"></path><path d="M31.9121 13.4337L31.8521 13.494L31.9121 13.5542C32.2126 13.7952 32.6333 13.9156 32.9939 13.9759C33.2343 13.9759 33.4146 13.9759 33.655 13.9156C34.256 13.7952 34.7368 13.3735 35.0974 12.8313L35.1575 12.7711L35.0974 12.7108C34.6166 12.3494 33.9555 12.2289 33.3545 12.3494C32.7535 12.5301 32.2727 12.9518 31.9121 13.4337Z" fill="white"></path><path d="M34.6164 18.3736L34.6765 18.3134L34.6164 18.2531C34.2558 17.711 33.715 17.4097 33.114 17.3495C32.513 17.2893 31.8519 17.4097 31.3711 17.8314L31.311 17.8917L31.3711 17.9519C31.7317 18.4941 32.2726 18.7953 32.8736 18.8555C32.9337 18.8555 32.9938 18.8555 33.114 18.8555C33.715 18.9158 34.2558 18.735 34.6164 18.3736Z" fill="white"></path><path d="M26.9837 20.8435C26.4428 20.5422 25.7817 20.4218 25.1807 20.6025L25.0605 20.6627L25.1206 20.7832C25.2408 21.3856 25.6014 21.9278 26.1423 22.229C26.3827 22.3495 26.563 22.47 26.8635 22.47C27.2241 22.5302 27.5847 22.5302 27.9453 22.4097L28.0655 22.3495L28.0054 22.229C27.8852 21.6868 27.4645 21.2049 26.9837 20.8435Z" fill="white"></path><path d="M26.6836 15.723L26.7437 15.6025L26.6235 15.5423C25.7821 15.2411 24.8205 15.2411 24.0392 15.5423C23.258 15.8435 22.5969 16.4459 22.3565 17.2291L22.2964 17.3495L22.4166 17.4098C22.7171 17.5303 23.0777 17.6507 23.4383 17.6507C23.9791 17.711 24.52 17.5905 25.0609 17.4098C25.8422 17.1086 26.4432 16.4459 26.6836 15.723Z" fill="white"></path><path d="M28.1259 17.7109C27.3447 17.6507 26.6235 17.8917 26.0225 18.4338L25.9624 18.4941L26.0225 18.5543C26.4432 19.1567 27.1644 19.5784 27.9456 19.6387C28.0057 19.6387 28.0057 19.6387 28.0658 19.6387C28.787 19.6989 29.5082 19.3977 29.989 18.9158L30.0491 18.8555L29.989 18.7953C29.5683 18.1929 28.8471 17.8314 28.1259 17.7109Z" fill="white"></path><path d="M26.9239 13.5543L26.8638 13.6748L26.984 13.735C27.1643 13.7953 27.2845 13.8555 27.4648 13.9157C28.0657 14.0362 28.6066 13.976 29.1475 13.7953C29.8687 13.4941 30.4096 12.8916 30.65 12.1688L30.7101 12.0483L30.5899 11.988C30.4096 11.9278 30.2894 11.8676 30.1091 11.8073C29.5081 11.6868 28.9672 11.7471 28.4263 11.9278C27.7652 12.229 27.1643 12.7712 26.9239 13.5543Z" fill="white"></path><path d="M32.2727 15.7831L32.3328 15.7228L32.2727 15.6626C32.1525 15.5421 32.0323 15.4216 31.852 15.3614C31.3712 15.0602 30.7702 14.9397 30.2293 14.9397C29.5082 14.9999 28.787 15.3614 28.3062 15.9638L28.2461 16.024L28.3062 16.0843C28.4264 16.2048 28.5466 16.3252 28.7269 16.3855C29.2077 16.6867 29.8086 16.8072 30.3495 16.8072C31.0707 16.6867 31.7919 16.3252 32.2727 15.7831Z" fill="white"></path><path d="M26.2026 10.4218V10.5423H26.3228C26.3829 10.5423 26.5632 10.5423 26.6233 10.5423C27.2844 10.5423 27.8854 10.3013 28.4263 9.81937C29.0273 9.2772 29.3277 8.55431 29.3277 7.83142V7.71094H29.2075C29.1474 7.71094 28.9672 7.71094 28.9071 7.71094C28.246 7.71094 27.645 7.9519 27.1041 8.43383C26.5632 8.85552 26.2026 9.63865 26.2026 10.4218Z" fill="white"></path><path d="M22.5365 8.19288L22.5966 8.13264C23.2577 7.71096 23.6784 7.0483 23.8587 6.32541C23.9789 5.60252 23.7986 4.81939 23.3178 4.21698L23.2577 4.15674L23.1375 4.21698C22.4764 4.63867 22.0557 5.30132 21.8754 6.02421C21.7552 6.7471 21.9355 7.53023 22.4163 8.13264L22.5365 8.19288Z" fill="white"></path><path d="M22.5967 14.2772V14.3375H22.7169C22.777 14.3375 22.777 14.3375 22.777 14.3375C23.4982 14.3977 24.2193 14.217 24.7602 13.7953C25.3612 13.3736 25.6617 12.7712 25.6617 12.1688V12.1086H25.5415C24.8203 12.0483 23.9789 12.1688 23.4381 12.6507C22.9573 13.0724 22.5967 13.6146 22.5967 14.2772Z" fill="white"></path><path d="M24.5198 9.03607V8.97583H24.3996C23.6183 8.97583 22.8371 9.21679 22.2962 9.69872C21.7553 10.1806 21.4548 10.7831 21.5149 11.5059V11.5662H21.6351C21.6952 11.5662 21.6952 11.5662 21.6952 11.5662C22.4164 11.5662 23.1376 11.3252 23.6784 10.8433C24.2794 10.3614 24.5799 9.69872 24.5198 9.03607Z" fill="white"></path><path d="M22.0558 27.0483C22.0558 27.0483 22.3562 26.0242 22.176 24.3374C21.9356 21.2652 20.1927 17.9519 20.1927 17.9519C20.1927 17.9519 24.2193 22.7109 24.3996 27.8917C24.5799 34.8194 19.2311 38.3736 19.2311 38.3736C19.2311 38.3736 21.1543 35.3013 21.0341 30.6025C20.974 27.4097 15.9858 26.3856 15.9858 26.3856C15.9858 26.3856 17.8489 26.2652 19.4114 26.4459C20.8538 26.5061 22.0558 27.0483 22.0558 27.0483Z" fill="white"></path><path d="M63.1233 13.5457H57.3625V29.7516H54.7608V13.5457H49V11.2483H63.1853L63.1233 13.5457Z" fill="black"></path><path d="M141.728 28.0131C140.055 29.317 137.701 30 135.471 30C130.206 30 126.304 25.9641 126.304 20.5621C126.304 15.098 130.33 11 135.657 11C137.825 11 139.993 11.683 141.728 13.049L140.551 14.9118C139.25 13.9183 137.392 13.4216 135.781 13.4216C131.941 13.4216 128.967 16.5261 128.967 20.6242C128.967 24.7222 131.817 27.7647 135.719 27.7647C137.392 27.7647 139.374 27.2059 140.613 26.2745L141.728 28.0131Z" fill="black"></path><path d="M182.738 28.0131C181.066 29.317 178.712 30 176.482 30C171.216 30 167.314 25.9641 167.314 20.5621C167.314 15.098 171.34 11 176.668 11C178.836 11 181.004 11.683 182.738 13.049L181.561 14.9118C180.26 13.9183 178.402 13.4216 176.791 13.4216C172.951 13.4216 169.978 16.5261 169.978 20.6242C169.978 24.7222 172.827 27.7647 176.729 27.7647C178.402 27.7647 180.384 27.2059 181.623 26.2745L182.738 28.0131Z" fill="black"></path><path d="M89.7134 19.0098V21.3072H99.9342V19.0098H92.315H89.7134Z" fill="black"></path><path d="M92.315 13.2974H101.049V11H89.7134V13.2974H92.315Z" fill="black"></path><path d="M101.297 27.1438H89.7134V29.4412H101.297V27.1438Z" fill="black"></path><path d="M119.335 27.1438H107.751V29.4412H119.335V27.1438Z" fill="black"></path><path d="M110.415 13.2974H119.087V11H107.751V13.2974H110.415Z" fill="black"></path><path d="M107.751 19.0098V21.3072H118.034V19.0098H110.415H107.751Z" fill="black"></path><path d="M217.253 27.1438H205.669V29.4412H217.253V27.1438Z" fill="black"></path><path d="M208.271 13.2974H217.067V11H205.669V13.2974H208.271Z" fill="black"></path><path d="M205.669 19.0098V21.3072H215.89V19.0098H208.271H205.669Z" fill="black"></path><path d="M79.3792 21.9902C81.8569 21.2451 83.3436 19.1961 83.3436 16.5882C83.3436 13.3595 81.0517 11 77.2111 11H70.645V13.2974H73.2467H76.7775C79.1314 13.2974 80.742 14.415 80.742 16.6503C80.742 18.7614 79.2553 20.0033 76.7775 20.0033H73.2467V22.3007H76.6536L80.8039 29.4412H83.9011L79.3792 21.9902Z" fill="black"></path><path d="M149.706 11H146.918L151.564 18.6373L153.175 16.3399L149.706 11Z" fill="black"></path><path d="M153.051 20.5621V29.0686H155.652V20.5621L162.095 11H159.555" fill="black"></path><path d="M191.47 27.0196V11H189.178V27.1438V29.5033H198.903V27.0196H191.47Z" fill="black"></path></svg> 